<svg width="32" height="32" viewBox="0 0 32 32" fill="none" xmlns="http://www.w3.org/2000/svg">
<path fill-rule="evenodd" clip-rule="evenodd" d="M29.8131 15.8766C29.8131 22.4359 23.7356 27.7533 16.2398 27.7533C14.8954 27.7551 13.5567 27.5805 12.2577 27.2341C11.2669 27.7363 8.99166 28.7 5.16399 29.3278C4.82466 29.3821 4.56676 29.0292 4.7008 28.7136C5.30142 27.2952 5.84435 25.4051 6.00723 23.6813C3.92882 21.5944 2.6665 18.8628 2.6665 15.8766C2.6665 9.31734 8.74395 4 16.2398 4C23.7356 4 29.8131 9.31734 29.8131 15.8766ZM11.1498 15.8766C11.1498 16.3266 10.9711 16.7582 10.6529 17.0764C10.3347 17.3945 9.90313 17.5733 9.45315 17.5733C9.00317 17.5733 8.57161 17.3945 8.25343 17.0764C7.93524 16.7582 7.75649 16.3266 7.75649 15.8766C7.75649 15.4266 7.93524 14.9951 8.25343 14.6769C8.57161 14.3587 9.00317 14.18 9.45315 14.18C9.90313 14.18 10.3347 14.3587 10.6529 14.6769C10.9711 14.9951 11.1498 15.4266 11.1498 15.8766ZM17.9365 15.8766C17.9365 16.3266 17.7577 16.7582 17.4395 17.0764C17.1213 17.3945 16.6898 17.5733 16.2398 17.5733C15.7898 17.5733 15.3583 17.3945 15.0401 17.0764C14.7219 16.7582 14.5431 16.3266 14.5431 15.8766C14.5431 15.4266 14.7219 14.9951 15.0401 14.6769C15.3583 14.3587 15.7898 14.18 16.2398 14.18C16.6898 14.18 17.1213 14.3587 17.4395 14.6769C17.7577 14.9951 17.9365 15.4266 17.9365 15.8766ZM23.0264 17.5733C23.4764 17.5733 23.908 17.3945 24.2262 17.0764C24.5443 16.7582 24.7231 16.3266 24.7231 15.8766C24.7231 15.4266 24.5443 14.9951 24.2262 14.6769C23.908 14.3587 23.4764 14.18 23.0264 14.18C22.5765 14.18 22.1449 14.3587 21.8267 14.6769C21.5085 14.9951 21.3298 15.4266 21.3298 15.8766C21.3298 16.3266 21.5085 16.7582 21.8267 17.0764C22.1449 17.3945 22.5765 17.5733 23.0264 17.5733Z" fill="#C4C4C4"/>
</svg>
