<svg width="32" height="32" viewBox="0 0 32 32" fill="none" xmlns="http://www.w3.org/2000/svg">
<path d="M16.0002 29.3333C17.4668 29.3333 18.6668 28.1333 18.6668 26.6667H13.3335C13.3335 27.3739 13.6144 28.0522 14.1145 28.5523C14.6146 29.0524 15.2929 29.3333 16.0002 29.3333ZM24.0002 21.3333V14.6667C24.0002 10.5733 21.8135 7.14668 18.0002 6.24001V5.33334C18.0002 4.22668 17.1068 3.33334 16.0002 3.33334C14.8935 3.33334 14.0002 4.22668 14.0002 5.33334V6.24001C10.1735 7.14668 8.00016 10.56 8.00016 14.6667V21.3333L5.3335 24V25.3333H26.6668V24L24.0002 21.3333Z" fill="#C4C4C4"/>
</svg>
