<svg width="32" height="32" viewBox="0 0 32 32" fill="none" xmlns="http://www.w3.org/2000/svg">
<path d="M4.53317 27.2L27.7998 17.2267C28.0404 17.1242 28.2454 16.9533 28.3896 16.7352C28.5338 16.5171 28.6106 16.2614 28.6106 16C28.6106 15.7386 28.5338 15.4829 28.3896 15.2648C28.2454 15.0467 28.0404 14.8758 27.7998 14.7733L4.53317 4.8C4.33171 4.71212 4.11153 4.67579 3.89252 4.69427C3.6735 4.71275 3.46253 4.78546 3.27864 4.90585C3.09474 5.02624 2.94372 5.19052 2.83918 5.38387C2.73464 5.57721 2.67988 5.79354 2.67984 6.01333L2.6665 12.16C2.6665 12.8267 3.15984 13.4 3.8265 13.48L22.6665 16L3.8265 18.5067C3.15984 18.6 2.6665 19.1733 2.6665 19.84L2.67984 25.9867C2.67984 26.9333 3.65317 27.5867 4.53317 27.2Z" fill="#C4C4C4"/>
</svg>
