<svg width="32" height="32" viewBox="0 0 32 32" fill="none" xmlns="http://www.w3.org/2000/svg">
<g clip-path="url(#clip0)">
<path d="M25.9065 17.3067C25.9598 16.88 25.9998 16.4533 25.9998 16C25.9998 15.5467 25.9598 15.12 25.9065 14.6933L28.7198 12.4933C28.9731 12.2933 29.0398 11.9333 28.8798 11.64L26.2131 7.02666C26.0531 6.73332 25.6931 6.62666 25.3998 6.73332L22.0798 8.06666C21.3865 7.53332 20.6398 7.09332 19.8265 6.75999L19.3198 3.22666C19.2977 3.06978 19.2192 2.92634 19.0989 2.82324C18.9786 2.72014 18.8249 2.66447 18.6665 2.66666H13.3331C12.9998 2.66666 12.7198 2.90666 12.6798 3.22666L12.1731 6.75999C11.3598 7.09332 10.6131 7.54666 9.91979 8.06666L6.59979 6.73332C6.29312 6.61332 5.94645 6.73332 5.78645 7.02666L3.11979 11.64C2.94645 11.9333 3.02645 12.2933 3.27979 12.4933L6.09312 14.6933C6.03979 15.12 5.99979 15.56 5.99979 16C5.99979 16.44 6.03979 16.88 6.09312 17.3067L3.27979 19.5067C3.02645 19.7067 2.95979 20.0667 3.11979 20.36L5.78645 24.9733C5.94645 25.2667 6.30645 25.3733 6.59979 25.2667L9.91979 23.9333C10.6131 24.4667 11.3598 24.9067 12.1731 25.24L12.6798 28.7733C12.7198 29.0933 12.9998 29.3333 13.3331 29.3333H18.6665C18.9998 29.3333 19.2798 29.0933 19.3198 28.7733L19.8265 25.24C20.6398 24.9067 21.3865 24.4533 22.0798 23.9333L25.3998 25.2667C25.7065 25.3867 26.0531 25.2667 26.2131 24.9733L28.8798 20.36C29.0398 20.0667 28.9731 19.7067 28.7198 19.5067L25.9065 17.3067ZM15.9998 20.6667C13.4265 20.6667 11.3331 18.5733 11.3331 16C11.3331 13.4267 13.4265 11.3333 15.9998 11.3333C18.5731 11.3333 20.6665 13.4267 20.6665 16C20.6665 18.5733 18.5731 20.6667 15.9998 20.6667Z" fill="#C4C4C4"/>
</g>
<defs>
<clipPath id="clip0">
<rect width="32" height="32" fill="white"/>
</clipPath>
</defs>
</svg>
